# xmcd
#
# Track frame offsets: 
#        150
#        11747
#        33400
#        59855
#        89165
#        112500
#        132790
#        151810
#        166550
#        193942
#        205395
#        227217
#        241652
#        265557
#        283017
#        306915
#
# Disc length: 4468 seconds
#
# Revision: 0
# Processed by: cddbd v1.5.2PL0 Copyright (c) Steve Scherf et al.
# Submitted via: ExactAudioCopy v0.95b3
#
DISCID=d6117210
DTITLE=Alice In Chains  - The Essential Disc 01
DYEAR=1900
DGENRE=
TTITLE0=We Die Young
TTITLE1=Man In The Box
TTITLE2=Sea Of Sorrow
TTITLE3=Love, Hate, Love
TTITLE4=Am I Inside
TTITLE5=Brother
TTITLE6=Got Me Wrong
TTITLE7=Right Turn
TTITLE8=Rain When I Die
TTITLE9=Them Bones
TTITLE10=Angry Chair
TTITLE11=Dam That River
TTITLE12=Dirt
TTITLE13=God Smack
TTITLE14=Hate To Feel
TTITLE15=Rooster
EXTD=
EXTT0=
EXTT1=
EXTT2=
EXTT3=
EXTT4=
EXTT5=
EXTT6=
EXTT7=
EXTT8=
EXTT9=
EXTT10=
EXTT11=
EXTT12=
EXTT13=
EXTT14=
EXTT15=
PLAYORDER=
